<svg width="77" height="32" viewBox="0 0 77 32" fill="none" xmlns="http://www.w3.org/2000/svg">
<path fill-rule="evenodd" clip-rule="evenodd" d="M76.4998 16.5347C76.4998 11.0661 73.882 6.75098 68.8786 6.75098C63.8542 6.75098 60.8142 11.0661 60.8142 16.492C60.8142 22.9219 64.4031 26.1689 69.5542 26.1689C72.0664 26.1689 73.9664 25.5921 75.402 24.7803V20.508C73.9664 21.2343 72.3198 21.6829 70.2298 21.6829C68.182 21.6829 66.3664 20.9566 66.1342 18.4359H76.4575C76.4575 18.1582 76.4998 17.0474 76.4998 16.5347ZM66.0709 14.5053C66.0709 12.0914 67.5275 11.0874 68.8575 11.0874C70.1453 11.0874 71.5175 12.0914 71.5175 14.5053H66.0709Z" fill="#635BFF"/>
<path fill-rule="evenodd" clip-rule="evenodd" d="M52.6655 6.75098C50.5966 6.75098 49.2666 7.73362 48.5277 8.4172L48.2533 7.09277H43.6088V32.0006L48.8866 30.8685L48.9077 24.8231C49.6677 25.3785 50.7866 26.1689 52.6444 26.1689C56.4233 26.1689 59.8644 23.0928 59.8644 16.3211C59.8433 10.1261 56.3599 6.75098 52.6655 6.75098ZM51.3988 21.4693C50.1533 21.4693 49.4144 21.0207 48.9077 20.4653L48.8866 12.54C49.4355 11.9205 50.1955 11.4933 51.3988 11.4933C53.3199 11.4933 54.6499 13.6722 54.6499 16.4706C54.6499 19.3331 53.341 21.4693 51.3988 21.4693Z" fill="#635BFF"/>
<path fill-rule="evenodd" clip-rule="evenodd" d="M36.3465 5.48998L41.6454 4.33645V0L36.3465 1.13218V5.48998Z" fill="#635BFF"/>
<path d="M41.6454 7.11426H36.3465V25.8058H41.6454V7.11426Z" fill="#635BFF"/>
<path fill-rule="evenodd" clip-rule="evenodd" d="M30.6678 8.69416L30.33 7.11339H25.77V25.805H31.0478V13.1374C32.2934 11.4926 34.4045 11.7916 35.0589 12.0266V7.11339C34.3833 6.85704 31.9133 6.38708 30.6678 8.69416Z" fill="#635BFF"/>
<path fill-rule="evenodd" clip-rule="evenodd" d="M20.1122 2.47852L14.9611 3.58933L14.94 20.7001C14.94 23.8617 17.2833 26.1901 20.4078 26.1901C22.1389 26.1901 23.4056 25.8697 24.1022 25.4852V21.1487C23.4267 21.4264 20.0911 22.4091 20.0911 19.2475V11.6641H24.1022V7.11403H20.0911L20.1122 2.47852Z" fill="#635BFF"/>
<path fill-rule="evenodd" clip-rule="evenodd" d="M5.84111 12.54C5.84111 11.7069 6.51666 11.3865 7.63555 11.3865C9.24 11.3865 11.2667 11.8778 12.8711 12.7536V7.73362C11.1189 7.02868 9.38777 6.75098 7.63555 6.75098C3.35 6.75098 0.5 9.01533 0.5 12.7964C0.5 18.6922 8.52222 17.7523 8.52222 20.2944C8.52222 21.277 7.67777 21.5974 6.49555 21.5974C4.74333 21.5974 2.50555 20.8711 0.732222 19.8885V24.9726C2.69555 25.8271 4.68 26.1902 6.49555 26.1902C10.8867 26.1902 13.9055 23.9899 13.9055 20.1662C13.8844 13.8004 5.84111 14.9325 5.84111 12.54Z" fill="#635BFF"/>
</svg>
